::General::
Complete name: Batman The Dark Knight 2008 1080p BluRay x264 [Dual Audio][Eng-Hin] NimitMak SilverRG
Director: Christopher Nolan
Format: MPEG-4
File size: 1.91 GB
Duration: 2h 32mn
Overall Bitrate: 1795 Kbps
Language: Dual Audio [English-Hindi]
Sub Title: English (.srt) + Embedded (Can Be Turned off)
Encoded date: 2012-10-02
Writing application: MeGui
Writing library: x264 core 100 r1659 57b2e56
Encoder: NimitMak
Source: Bluray.YIFY.x264 (Thanks)



::IMDB INFO::
IMDB Link:http://www.imdb.com/title/tt0468569/
IMDB Rating:9.0/10
Release Date:18 July 2008 (India)
Genre: Action | Crime | Drama 
YouTube



::Video::
ID: 1
Format: AVC
Format/Info: Advanced Video Codec
Format profile: High@L4.0
Format settings, CABAC: Yes
Format settings, ReFrames: 5 frames
Codec ID: V_MPEG4/ISO/AVC
Nominal Bitrate: 1535 Kbps/16.5 Mbps (Max)
Width: 1920 pixels
Height: 800 pixels
Display aspect ratio: 2.40:1
Frame rate: 23.976 fps
Color space: YUV
Chroma subsampling: 4:2:0
Bit depth: 8 bits
Scan type: Progressive
Writing library: x264 core 100 r1659 57b2e56



::Audio #1::
ID: 2
Format: AAC
Format/Info: Advanced Audio Codec
Format profile: HE-AAC / LC
Codec ID: 40
Duration: 2h 32mn
Bit rate mode: Variable
Bit rate: 64.0 Kbps
Maximum bit rate: 89.8 Kbps
Channel(s): 2 channels
Channel positions: Front: L R
Sampling rate : 44.1 KHz / 22.05 KHz
Compression mode: Lossy
Stream size: 69.7 MiB (4%)
Title: English - NimitMak SilverRG

::Audio #2::
ID: 3
Format: AC-3
Format/Info: Audio Coding 3
Mode extension: CM (complete main)
Codec ID: ac-3
Duration : 2h 32mn
Bit rate mode: Constant
Bit rate: 192 Kbps
Channel(s): 2 channels
Channel positions: Front: L R
Sampling rate: 44.1 KHz
Bit depth: 16 bits
Compression mode: Lossy
Stream size: 209 MiB (11%)
Title : Hindi - Dolby Digital 2.1 By mjrocks91

::Text #1::
ID: 4
Format: Timed text
Codec ID: tx3g
Duration: 2h 32mn
Bit rate mode: Variable
Bit rate: 66 bps
Stream size: 73.6 KiB (0%)
Title: English - NimitMak SilverRG
Language: English

Screens : 
http://imgbox.com/absO8MUC 
http://imgbox.com/adpOdlh5 
http://imgbox.com/acwSHKed 
http://imgbox.com/abgXNju4 
http://imgbox.com/adqJt96O 
http://imgbox.com/acjOBbQa 
http://imgbox.com/abprlVeR
